<?xml version="1.0" encoding="utf-8"?>
<!-- Generator: Adobe Illustrator 24.0.0, SVG Export Plug-In . SVG Version: 6.00 Build 0)  -->
<svg version="1.1" id="Layer_2" xmlns="http://www.w3.org/2000/svg" xmlns:xlink="http://www.w3.org/1999/xlink" x="0px" y="0px"
	 viewBox="0 0 512 512" style="enable-background:new 0 0 512 512;" xml:space="preserve">
<path class="st0" d="M284,265h-65c-6.6,0-12-5.4-12-12V55c0-6.6,5.4-12,12-12h65c6.6,0,12,5.4,12,12v198
	C296,259.6,290.6,265,284,265z"/>
<polygon class="st0" points="250.5,375.3 333.9,230.9 167.1,230.9 "/>
<path class="st0" d="M471,408.4V452c0,6.6-5.4,12-12,12H54c-6.6,0-12-5.4-12-12v-43.6c-5.2,1.3-9,6-9,11.6v68c0,6.6,5.4,12,12,12
	h423c6.6,0,12-5.4,12-12v-68C480,414.4,476.2,409.7,471,408.4z"/>
</svg>
